#N canvas 830 23 542 347 10;
#X msg 114 83 print;
#X obj 98 148 hid;
#X msg 107 58 open 2;
#X obj 63 42 tgl 15 0 empty empty empty 17 7 0 10 -262144 -1 -1 0 1
;
#X msg 366 229 connect 127.0.0.1 5555;
#X msg 393 251 disconnect;
#X obj 98 303 tgl 15 0 empty empty empty 17 7 0 10 -262144 -1 -1 0
1;
#N canvas 473 393 396 224 oscsend 0;
#X msg 176 117 connect 127.0.0.1 5555;
#X msg 176 142 disconnect;
#X obj 56 57 mrpeach/packOSC;
#X obj 56 145 mrpeach/udpsend;
#X obj 56 28 inlet data;
#X obj 175 87 inlet connect/disconnect;
#X obj 56 179 outlet connection feedback;
#X connect 2 0 3 0;
#X connect 3 0 6 0;
#X connect 4 0 2 0;
#X connect 5 0 3 0;
#X restore 98 274 pd oscsend;
#X msg 98 31 open 0x054c 0x0268;
#N canvas 34 23 478 225 Sticks 0;
#X obj 15 37 route abs;
#X obj 15 61 route abs_x abs_y abs_z abs_rz;
#X floatatom 15 87 5 0 0 0 - - -, f 5;
#X floatatom 59 87 5 0 0 0 - - -, f 5;
#X floatatom 147 87 5 0 0 0 - - -, f 5;
#X floatatom 103 87 5 0 0 0 - - -, f 5;
#X obj 15 115 / 255;
#X obj 59 115 / 255;
#X obj 103 115 / 255;
#X obj 147 115 / 255;
#X msg -57 146 send /stickL/x \$1;
#X msg 59 146 send /stickL/y \$1;
#X msg 174 146 send /stickR/x \$1;
#X msg 291 146 send /stickR/y \$1;
#X obj 15 8 inlet;
#X obj -57 180 outlet;
#X obj 59 180 outlet;
#X obj 174 180 outlet;
#X obj 291 180 outlet;
#X connect 0 0 1 0;
#X connect 1 0 2 0;
#X connect 1 1 3 0;
#X connect 1 2 5 0;
#X connect 1 3 4 0;
#X connect 2 0 6 0;
#X connect 3 0 7 0;
#X connect 4 0 9 0;
#X connect 5 0 8 0;
#X connect 6 0 10 0;
#X connect 7 0 11 0;
#X connect 8 0 12 0;
#X connect 9 0 13 0;
#X connect 10 0 15 0;
#X connect 11 0 16 0;
#X connect 12 0 17 0;
#X connect 13 0 18 0;
#X connect 14 0 0 0;
#X restore 32 180 pd Sticks;
#N canvas 36 339 420 193 Shoulders 0;
#X floatatom 82 97 5 0 0 0 - - -, f 5;
#X floatatom 127 97 5 0 0 0 - - -, f 5;
#X floatatom 219 97 5 0 0 0 - - -, f 5;
#X floatatom 173 97 5 0 0 0 - - -, f 5;
#X obj 81 13 inlet;
#X obj 24 152 outlet;
#X obj 127 152 outlet;
#X obj 222 152 outlet;
#X obj 319 152 outlet;
#X obj 81 42 route key;
#X msg 24 122 send /keyL2 \$1;
#X msg 127 122 send /keyR2 \$1;
#X msg 222 122 send /keyL1 \$1;
#X msg 319 122 send /keyR1 \$1;
#X text 145 54 L2 R2 L1 R1;
#X obj 82 70 route btn_8 btn_9 btn_10 btn_11;
#X connect 0 0 10 0;
#X connect 1 0 11 0;
#X connect 2 0 13 0;
#X connect 3 0 12 0;
#X connect 4 0 9 0;
#X connect 9 0 15 0;
#X connect 10 0 5 0;
#X connect 11 0 6 0;
#X connect 12 0 7 0;
#X connect 13 0 8 0;
#X connect 15 0 0 0;
#X connect 15 1 1 0;
#X connect 15 2 3 0;
#X connect 15 3 2 0;
#X restore 98 180 pd Shoulders;
#N canvas 531 23 389 193 D_Pad 0;
#X floatatom 62 97 5 0 0 0 - - -, f 5;
#X floatatom 104 97 5 0 0 0 - - -, f 5;
#X floatatom 190 97 5 0 0 0 - - -, f 5;
#X floatatom 147 97 5 0 0 0 - - -, f 5;
#X obj 62 13 inlet;
#X obj 11 152 outlet;
#X obj 197 151 outlet;
#X obj 293 151 outlet;
#X obj 62 42 route key;
#X obj 62 70 route btn_4 btn_5 btn_6 btn_7;
#X msg 104 123 send /padR \$1;
#X msg 293 123 send /padL \$1;
#X msg 197 123 send /padD \$1;
#X msg 11 124 send /padU \$1;
#X obj 104 151 outlet;
#X text 126 52 Up Right Down Left;
#X connect 0 0 13 0;
#X connect 1 0 10 0;
#X connect 2 0 11 0;
#X connect 3 0 12 0;
#X connect 4 0 8 0;
#X connect 8 0 9 0;
#X connect 9 0 0 0;
#X connect 9 1 1 0;
#X connect 9 2 3 0;
#X connect 9 3 2 0;
#X connect 10 0 14 0;
#X connect 11 0 7 0;
#X connect 12 0 6 0;
#X connect 13 0 5 0;
#X restore 181 180 pd D_Pad;
#N canvas 491 352 410 187 key 0;
#X floatatom 62 78 5 0 0 0 - - -, f 5;
#X floatatom 110 78 5 0 0 0 - - -, f 5;
#X floatatom 208 78 5 0 0 0 - - -, f 5;
#X floatatom 159 78 5 0 0 0 - - -, f 5;
#X obj 62 -5 inlet;
#X obj 9 142 outlet;
#X obj 110 142 outlet;
#X obj 200 142 outlet;
#X obj 297 142 outlet;
#X obj 62 24 route key;
#X obj 62 51 route btn_12 btn_13 btn_14 btn_15;
#X text 122 36 Tri o X carre;
#X msg 9 108 send /keyTri \$1;
#X msg 110 108 send /keyO \$1;
#X msg 200 108 send /keyX \$1;
#X msg 297 108 send /keySqr \$1;
#X connect 0 0 12 0;
#X connect 1 0 13 0;
#X connect 2 0 15 0;
#X connect 3 0 14 0;
#X connect 4 0 9 0;
#X connect 9 0 10 0;
#X connect 10 0 0 0;
#X connect 10 1 1 0;
#X connect 10 2 3 0;
#X connect 10 3 2 0;
#X connect 12 0 5 0;
#X connect 13 0 6 0;
#X connect 14 0 7 0;
#X connect 15 0 8 0;
#X restore 241 180 pd key;
#X text 156 58 Ouvrir par le numero du device;
#X obj 366 180 sel 1;
#X obj 393 208 bng 15 250 50 0 empty empty empty 17 7 0 10 -262144
-1 -1;
#X text 214 33 code vendor et product ID du PS3Controller;
#X obj 63 78 t f f;
#N canvas 490 329 425 179 extraKey 0;
#X floatatom 71 83 5 0 0 0 - - -, f 5;
#X floatatom 113 84 5 0 0 0 - - -, f 5;
#X floatatom 199 83 5 0 0 0 - - -, f 5;
#X floatatom 156 83 5 0 0 0 - - -, f 5;
#X obj 71 -1 inlet;
#X obj 10 135 outlet;
#X obj 113 135 outlet;
#X obj 208 134 outlet;
#X obj 305 134 outlet;
#X obj 71 28 route key;
#X obj 71 56 route btn_0 btn_1 btn_2 btn_3;
#X text 131 41 Sel L3 R3 Start;
#X msg 10 109 send /keySel \$1;
#X msg 113 109 send /keyL3 \$1;
#X msg 208 108 send /keyR3 \$1;
#X msg 305 108 send /keyStart \$1;
#X connect 0 0 12 0;
#X connect 1 0 13 0;
#X connect 2 0 15 0;
#X connect 3 0 14 0;
#X connect 4 0 9 0;
#X connect 9 0 10 0;
#X connect 10 0 0 0;
#X connect 10 1 1 0;
#X connect 10 2 3 0;
#X connect 10 3 2 0;
#X connect 12 0 5 0;
#X connect 13 0 6 0;
#X connect 14 0 7 0;
#X connect 15 0 8 0;
#X restore 289 179 pd extraKey;
#X text 97 9 First Open:;
#X text 13 23 Start here:;
#X connect 0 0 1 0;
#X connect 1 0 9 0;
#X connect 1 0 10 0;
#X connect 1 0 11 0;
#X connect 1 0 12 0;
#X connect 1 0 18 0;
#X connect 2 0 1 0;
#X connect 3 0 17 0;
#X connect 4 0 7 1;
#X connect 5 0 7 1;
#X connect 7 0 6 0;
#X connect 8 0 1 0;
#X connect 9 0 7 0;
#X connect 9 1 7 0;
#X connect 9 2 7 0;
#X connect 9 3 7 0;
#X connect 10 0 7 0;
#X connect 10 1 7 0;
#X connect 10 2 7 0;
#X connect 10 3 7 0;
#X connect 11 0 7 0;
#X connect 11 1 7 0;
#X connect 11 2 7 0;
#X connect 11 3 7 0;
#X connect 12 0 7 0;
#X connect 12 1 7 0;
#X connect 12 2 7 0;
#X connect 12 3 7 0;
#X connect 14 0 4 0;
#X connect 14 1 15 0;
#X connect 15 0 5 0;
#X connect 17 0 1 0;
#X connect 17 1 14 0;
#X connect 18 0 7 0;
#X connect 18 1 7 0;
#X connect 18 2 7 0;
#X connect 18 3 7 0;
